<?xml version="1.0" encoding="utf-8"?>
<!-- Generator: Adobe Illustrator 26.0.1, SVG Export Plug-In . SVG Version: 6.00 Build 0)  -->
<svg version="1.1" id="Layer_1" xmlns="http://www.w3.org/2000/svg" xmlns:xlink="http://www.w3.org/1999/xlink" x="0px" y="0px"
	 viewBox="0 0 1122 1122" style="enable-background:new 0 0 1122 1122;" xml:space="preserve">
<style type="text/css">
	.st0{display:none;}
	.st1{display:inline;fill:#14294C;}
	.st2{fill:#FFFFFF;}
	.st3{fill:#730C19;}
	.st4{fill:#E7E9EE;}
	.st5{fill:#CFD1D2;}
	.st6{fill:#A5A6A9;}
	.st7{fill:#3F3F3F;}
</style>
<g id="BG">
</g>
<g id="Layer_3" class="st0">
	<rect class="st1" width="1122" height="1122"/>
</g>
<g>
	<g>
		<g>
			<path class="st2" d="M571.5,894.2c-89.4,0-173.5-34.8-236.7-98s-98-147.3-98-236.7s34.8-173.5,98-236.7s147.3-98,236.7-98
				s173.5,34.8,236.7,98s98,147.3,98,236.7s-34.8,173.5-98,236.7S660.9,894.2,571.5,894.2z M571.5,232.7c-87.3,0-169.3,34-231,95.7
				s-95.7,143.8-95.7,231c0,87.3,34,169.3,95.7,231s143.8,95.7,231,95.7c87.3,0,169.3-34,231-95.7s95.7-143.8,95.7-231
				c0-87.3-34-169.3-95.7-231C740.9,266.7,658.8,232.7,571.5,232.7z"/>
		</g>
		<g>
			<g>
				<rect x="568.1" y="189.2" class="st2" width="6.8" height="39.6"/>
			</g>
			<g>
				<rect x="568.1" y="890.2" class="st2" width="6.8" height="39.6"/>
			</g>
			<g>
				
					<rect x="509.3" y="209.9" transform="matrix(0.9848 -0.1737 0.1737 0.9848 -30.7602 92.2985)" class="st2" width="5.3" height="24"/>
			</g>
			<g>
				
					<rect x="628.4" y="885" transform="matrix(0.9848 -0.1736 0.1736 0.9848 -146.1385 123.1684)" class="st2" width="5.3" height="24"/>
			</g>
			<g>
				
					<rect x="451.6" y="225.4" transform="matrix(0.9397 -0.342 0.342 0.9397 -53.8091 169.6703)" class="st2" width="5.3" height="24"/>
			</g>
			<g>
				
					<rect x="686.1" y="869.6" transform="matrix(0.9397 -0.342 0.342 0.9397 -259.9824 288.714)" class="st2" width="5.3" height="24"/>
			</g>
			<g>
				<rect x="397.5" y="250.7" transform="matrix(0.866 -0.5 0.5 0.866 -77.7422 235.2829)" class="st2" width="5.3" height="24"/>
			</g>
			<g>
				<rect x="740.2" y="844.3" transform="matrix(0.866 -0.5 0.5 0.866 -328.6453 486.1517)" class="st2" width="5.3" height="24"/>
			</g>
			<g>
				
					<rect x="348.5" y="284.9" transform="matrix(0.766 -0.6428 0.6428 0.766 -108.7151 295.1942)" class="st2" width="5.3" height="24"/>
			</g>
			<g>
				
					<rect x="789.1" y="810" transform="matrix(0.766 -0.6428 0.6428 0.766 -343.1003 701.2986)" class="st2" width="5.3" height="24"/>
			</g>
			<g>
				
					<rect x="306.4" y="327.2" transform="matrix(0.6428 -0.7661 0.7661 0.6428 -149.4601 357.8868)" class="st2" width="5.3" height="24"/>
			</g>
			<g>
				
					<rect x="831.4" y="767.9" transform="matrix(0.6428 -0.766 0.766 0.6428 -299.4955 917.45)" class="st2" width="5.3" height="24"/>
			</g>
			<g>
				<rect x="272" y="376.2" transform="matrix(0.5 -0.866 0.866 0.5 -198.8306 431.9362)" class="st2" width="5.3" height="24"/>
			</g>
			<g>
				<rect x="865.7" y="718.9" transform="matrix(0.5 -0.866 0.866 0.5 -198.789 1117.4559)" class="st2" width="5.3" height="24"/>
			</g>
			<g>
				
					<rect x="246.8" y="430.3" transform="matrix(0.3419 -0.9397 0.9397 0.3419 -251.4461 525.4975)" class="st2" width="5.3" height="24"/>
			</g>
			<g>
				
					<rect x="890.9" y="664.7" transform="matrix(0.342 -0.9397 0.9397 0.342 -47.963 1284.9745)" class="st2" width="5.3" height="24"/>
			</g>
			<g>
				
					<rect x="231.3" y="488" transform="matrix(0.1735 -0.9848 0.9848 0.1735 -299.0315 643.7064)" class="st2" width="5.3" height="24"/>
			</g>
			<g>
				
					<rect x="906.4" y="607" transform="matrix(0.1736 -0.9848 0.9848 0.1736 141.6096 1406.8022)" class="st2" width="5.3" height="24"/>
			</g>
			<g>
				<rect x="201.2" y="556.1" class="st2" width="39.6" height="6.8"/>
			</g>
			<g>
				<rect x="902.3" y="556.1" class="st2" width="39.6" height="6.8"/>
			</g>
			<g>
				
					<rect x="222" y="616.3" transform="matrix(0.9848 -0.1738 0.1738 0.9848 -104.0129 50.0863)" class="st2" width="24" height="5.3"/>
			</g>
			<g>
				
					<rect x="897.1" y="497.3" transform="matrix(0.9848 -0.1736 0.1736 0.9848 -72.9827 165.4114)" class="st2" width="24" height="5.3"/>
			</g>
			<g>
				
					<rect x="237.4" y="674" transform="matrix(0.9397 -0.342 0.342 0.9397 -216.3927 126.0846)" class="st2" width="24" height="5.3"/>
			</g>
			<g>
				
					<rect x="881.6" y="439.6" transform="matrix(0.9397 -0.342 0.342 0.9397 -97.3768 332.2794)" class="st2" width="24" height="5.3"/>
			</g>
			<g>
				<rect x="262.7" y="728.2" transform="matrix(0.866 -0.5 0.5 0.866 -328.6307 235.2612)" class="st2" width="24" height="5.3"/>
			</g>
			<g>
				<rect x="856.3" y="385.4" transform="matrix(0.866 -0.5 0.5 0.866 -77.6882 486.1747)" class="st2" width="24" height="5.3"/>
			</g>
			<g>
				
					<rect x="297" y="777.1" transform="matrix(0.7661 -0.6428 0.6428 0.7661 -428.915 381.0325)" class="st2" width="24" height="5.3"/>
			</g>
			<g>
				
					<rect x="822.1" y="336.5" transform="matrix(0.7661 -0.6428 0.6428 0.7661 -22.8518 615.4924)" class="st2" width="24" height="5.3"/>
			</g>
			<g>
				
					<rect x="339.2" y="819.4" transform="matrix(0.6428 -0.766 0.766 0.6428 -504.297 562.6459)" class="st2" width="24" height="5.3"/>
			</g>
			<g>
				
					<rect x="779.8" y="294.2" transform="matrix(0.6428 -0.7661 0.7661 0.6428 55.4294 712.6191)" class="st2" width="24" height="5.3"/>
			</g>
			<g>
				<rect x="388.1" y="853.7" transform="matrix(0.5 -0.866 0.866 0.5 -541.5542 774.6026)" class="st2" width="24" height="5.3"/>
			</g>
			<g>
				<rect x="730.9" y="260" transform="matrix(0.5 -0.866 0.866 0.5 143.971 774.6723)" class="st2" width="24" height="5.3"/>
			</g>
			<g>
				
					<rect x="442.3" y="878.9" transform="matrix(0.342 -0.9397 0.9397 0.342 -529.4444 1006.9397)" class="st2" width="24" height="5.3"/>
			</g>
			<g>
				
					<rect x="676.7" y="234.7" transform="matrix(0.342 -0.9397 0.9397 0.342 230.1572 803.3207)" class="st2" width="24" height="5.3"/>
			</g>
			<g>
				
					<rect x="500" y="894.4" transform="matrix(0.1736 -0.9848 0.9848 0.1736 -460.3015 1245.5914)" class="st2" width="24" height="5.3"/>
			</g>
			<g>
				
					<rect x="619.1" y="219.3" transform="matrix(0.1736 -0.9848 0.9848 0.1736 302.8795 804.9352)" class="st2" width="24" height="5.3"/>
			</g>
		</g>
		<g>
			<g>
				
					<rect x="558.6" y="215" transform="matrix(0.9994 -3.479361e-02 3.479361e-02 0.9994 -7.3487 19.6096)" class="st2" width="2.3" height="11.9"/>
			</g>
			<g>
				
					<rect x="582.2" y="892.1" transform="matrix(0.9994 -3.491132e-02 3.491132e-02 0.9994 -30.9968 20.9132)" class="st2" width="2.3" height="11.9"/>
			</g>
			<g>
				
					<rect x="546.8" y="215.6" transform="matrix(0.9976 -6.965497e-02 6.965497e-02 0.9976 -14.1013 38.7067)" class="st2" width="2.3" height="11.9"/>
			</g>
			<g>
				
					<rect x="594" y="891.5" transform="matrix(0.9976 -6.971341e-02 6.971341e-02 0.9976 -61.1184 43.675)" class="st2" width="2.3" height="11.9"/>
			</g>
			<g>
				
					<rect x="535" y="216.6" transform="matrix(0.9945 -0.1044 0.1044 0.9945 -20.305 57.1896)" class="st2" width="2.3" height="11.9"/>
			</g>
			<g>
				
					<rect x="605.8" y="890.5" transform="matrix(0.9945 -0.1045 0.1045 0.9945 -90.3558 68.3349)" class="st2" width="2.3" height="11.9"/>
			</g>
			<g>
				
					<rect x="523.2" y="218.1" transform="matrix(0.9903 -0.139 0.139 0.9903 -26.0548 75.06)" class="st2" width="2.3" height="11.9"/>
			</g>
			<g>
				
					<rect x="617.5" y="889" transform="matrix(0.9903 -0.1392 0.1392 0.9903 -118.5518 94.8316)" class="st2" width="2.3" height="11.9"/>
			</g>
			<g>
				
					<rect x="499.9" y="222.2" transform="matrix(0.9782 -0.2079 0.2079 0.9782 -36.4833 109.1551)" class="st2" width="2.3" height="11.9"/>
			</g>
			<g>
				
					<rect x="640.7" y="884.9" transform="matrix(0.9781 -0.2079 0.2079 0.9781 -171.1862 152.9234)" class="st2" width="2.3" height="11.9"/>
			</g>
			<g>
				
					<rect x="488.4" y="224.9" transform="matrix(0.9703 -0.2419 0.2419 0.9703 -41.2998 125.2825)" class="st2" width="2.3" height="11.9"/>
			</g>
			<g>
				
					<rect x="652.4" y="882.3" transform="matrix(0.9703 -0.242 0.242 0.9703 -195.5277 184.5452)" class="st2" width="2.3" height="11.9"/>
			</g>
			<g>
				
					<rect x="477" y="227.9" transform="matrix(0.9613 -0.2755 0.2755 0.9613 -45.9236 140.7804)" class="st2" width="2.3" height="11.9"/>
			</g>
			<g>
				
					<rect x="663.8" y="879.2" transform="matrix(0.9612 -0.2757 0.2757 0.9612 -218.2603 217.6332)" class="st2" width="2.3" height="11.9"/>
			</g>
			<g>
				
					<rect x="465.7" y="231.4" transform="matrix(0.9511 -0.3089 0.3089 0.9511 -50.4786 155.8218)" class="st2" width="2.3" height="11.9"/>
			</g>
			<g>
				
					<rect x="675.1" y="875.7" transform="matrix(0.951 -0.3091 0.3091 0.951 -239.3997 252.2006)" class="st2" width="2.3" height="11.9"/>
			</g>
			<g>
				
					<rect x="443.5" y="239.5" transform="matrix(0.9272 -0.3745 0.3745 0.9272 -59.5579 184.3909)" class="st2" width="2.3" height="11.9"/>
			</g>
			<g>
				
					<rect x="697.3" y="867.6" transform="matrix(0.9272 -0.3746 0.3746 0.9272 -276.3621 325.2443)" class="st2" width="2.3" height="11.9"/>
			</g>
			<g>
				
					<rect x="432.6" y="244.1" transform="matrix(0.9136 -0.4067 0.4067 0.9136 -64.191 198.0244)" class="st2" width="2.3" height="11.9"/>
			</g>
			<g>
				
					<rect x="708.2" y="863" transform="matrix(0.9136 -0.4067 0.4067 0.9136 -292.0919 363.5958)" class="st2" width="2.3" height="11.9"/>
			</g>
			<g>
				
					<rect x="421.9" y="249.1" transform="matrix(0.8988 -0.4383 0.4383 0.8988 -68.9703 211.2309)" class="st2" width="2.3" height="11.9"/>
			</g>
			<g>
				
					<rect x="718.9" y="858" transform="matrix(0.8988 -0.4384 0.4384 0.8988 -305.8766 403.1133)" class="st2" width="2.3" height="11.9"/>
			</g>
			<g>
				
					<rect x="411.3" y="254.4" transform="matrix(0.883 -0.4693 0.4693 0.883 -73.9499 224.0125)" class="st2" width="2.3" height="11.9"/>
			</g>
			<g>
				
					<rect x="729.5" y="852.7" transform="matrix(0.883 -0.4694 0.4694 0.883 -317.5487 443.4095)" class="st2" width="2.3" height="11.9"/>
			</g>
			<g>
				
					<rect x="390.9" y="266.3" transform="matrix(0.8481 -0.5299 0.5299 0.8481 -84.6677 249.117)" class="st2" width="2.3" height="11.9"/>
			</g>
			<g>
				
					<rect x="749.8" y="840.8" transform="matrix(0.848 -0.5299 0.5299 0.848 -334.5976 526.6331)" class="st2" width="2.3" height="11.9"/>
			</g>
			<g>
				
					<rect x="380.9" y="272.7" transform="matrix(0.8291 -0.5591 0.5591 0.8291 -90.5138 261.2378)" class="st2" width="2.3" height="11.9"/>
			</g>
			<g>
				
					<rect x="759.8" y="834.4" transform="matrix(0.829 -0.5592 0.5592 0.829 -339.8189 569.2047)" class="st2" width="2.3" height="11.9"/>
			</g>
			<g>
				
					<rect x="371.3" y="279.5" transform="matrix(0.8091 -0.5877 0.5877 0.8091 -96.6322 273.3869)" class="st2" width="2.3" height="11.9"/>
			</g>
			<g>
				
					<rect x="769.5" y="827.6" transform="matrix(0.809 -0.5878 0.5878 0.809 -342.7753 612.1916)" class="st2" width="2.3" height="11.9"/>
			</g>
			<g>
				
					<rect x="361.8" y="286.6" transform="matrix(0.788 -0.6156 0.6156 0.788 -103.175 285.447)" class="st2" width="2.3" height="11.9"/>
			</g>
			<g>
				
					<rect x="778.9" y="820.5" transform="matrix(0.788 -0.6157 0.6157 0.788 -343.4299 655.5081)" class="st2" width="2.3" height="11.9"/>
			</g>
			<g>
				
					<rect x="343.7" y="301.8" transform="matrix(0.7432 -0.6691 0.6691 0.7432 -117.3285 309.7774)" class="st2" width="2.3" height="11.9"/>
			</g>
			<g>
				
					<rect x="797.1" y="805.3" transform="matrix(0.7431 -0.6692 0.6692 0.7431 -337.7926 742.6061)" class="st2" width="2.3" height="11.9"/>
			</g>
			<g>
				
					<rect x="335.1" y="309.8" transform="matrix(0.7194 -0.6946 0.6946 0.7194 -124.9803 322.1825)" class="st2" width="2.3" height="11.9"/>
			</g>
			<g>
				
					<rect x="805.7" y="797.2" transform="matrix(0.7194 -0.6946 0.6946 0.7194 -331.4954 785.8074)" class="st2" width="2.3" height="11.9"/>
			</g>
			<g>
				
					<rect x="326.7" y="318.2" transform="matrix(0.6948 -0.7192 0.7192 0.6948 -133.0658 334.7088)" class="st2" width="2.3" height="11.9"/>
			</g>
			<g>
				
					<rect x="814.1" y="788.9" transform="matrix(0.6946 -0.7194 0.7194 0.6946 -322.7998 829.2417)" class="st2" width="2.3" height="11.9"/>
			</g>
			<g>
				
					<rect x="318.6" y="326.9" transform="matrix(0.6694 -0.7429 0.7429 0.6694 -141.5705 347.6198)" class="st2" width="2.3" height="11.9"/>
			</g>
			<g>
				
					<rect x="822" y="780.2" transform="matrix(0.6691 -0.7431 0.7431 0.6691 -311.8789 871.8657)" class="st2" width="2.3" height="11.9"/>
			</g>
			<g>
				
					<rect x="303.4" y="345" transform="matrix(0.6157 -0.788 0.788 0.6157 -159.4864 374.8874)" class="st2" width="2.3" height="11.9"/>
			</g>
			<g>
				
					<rect x="837.4" y="762.1" transform="matrix(0.6156 -0.7881 0.7881 0.6156 -282.9808 956.0775)" class="st2" width="2.3" height="11.9"/>
			</g>
			<g>
				
					<rect x="296.3" y="354.4" transform="matrix(0.5878 -0.809 0.809 0.5878 -168.9141 389.1624)" class="st2" width="2.3" height="11.9"/>
			</g>
			<g>
				
					<rect x="844.5" y="752.6" transform="matrix(0.5877 -0.8091 0.8091 0.5877 -265.1134 996.947)" class="st2" width="2.3" height="11.9"/>
			</g>
			<g>
				
					<rect x="289.5" y="364.1" transform="matrix(0.5594 -0.8289 0.8289 0.5594 -178.706 403.9974)" class="st2" width="2.3" height="11.9"/>
			</g>
			<g>
				
					<rect x="851.2" y="743" transform="matrix(0.5589 -0.8292 0.8292 0.5589 -245.0663 1037.1213)" class="st2" width="2.3" height="11.9"/>
			</g>
			<g>
				
					<rect x="283.1" y="374" transform="matrix(0.5301 -0.8479 0.8479 0.5301 -188.6129 419.5206)" class="st2" width="2.3" height="11.9"/>
			</g>
			<g>
				
					<rect x="857.7" y="733" transform="matrix(0.53 -0.848 0.848 0.53 -222.955 1075.6157)" class="st2" width="2.3" height="11.9"/>
			</g>
			<g>
				
					<rect x="271.3" y="394.5" transform="matrix(0.4695 -0.8829 0.8829 0.4695 -209.033 452.9546)" class="st2" width="2.3" height="11.9"/>
			</g>
			<g>
				
					<rect x="869.5" y="712.6" transform="matrix(0.4694 -0.883 0.883 0.4694 -172.4672 1150.0706)" class="st2" width="2.3" height="11.9"/>
			</g>
			<g>
				
					<rect x="265.9" y="405" transform="matrix(0.4385 -0.8987 0.8987 0.4385 -219.4189 470.7169)" class="st2" width="2.3" height="11.9"/>
			</g>
			<g>
				
					<rect x="874.9" y="702" transform="matrix(0.4384 -0.8988 0.8988 0.4384 -144.2713 1185.0076)" class="st2" width="2.3" height="11.9"/>
			</g>
			<g>
				
					<rect x="261" y="415.7" transform="matrix(0.4069 -0.9135 0.9135 0.4069 -229.7481 489.5428)" class="st2" width="2.3" height="11.9"/>
			</g>
			<g>
				
					<rect x="879.8" y="691.2" transform="matrix(0.4066 -0.9136 0.9136 0.4066 -114.1823 1218.5813)" class="st2" width="2.3" height="11.9"/>
			</g>
			<g>
				
					<rect x="256.4" y="426.6" transform="matrix(0.3749 -0.9271 0.9271 0.3749 -240.0677 509.1594)" class="st2" width="2.3" height="11.9"/>
			</g>
			<g>
				
					<rect x="884.5" y="680.4" transform="matrix(0.3748 -0.9271 0.9271 0.3748 -82.6006 1250.2115)" class="st2" width="2.3" height="11.9"/>
			</g>
			<g>
				
					<rect x="248.2" y="448.9" transform="matrix(0.3092 -0.951 0.951 0.3092 -260.2487 551.3692)" class="st2" width="2.3" height="11.9"/>
			</g>
			<g>
				
					<rect x="892.6" y="658.2" transform="matrix(0.3089 -0.9511 0.9511 0.3089 -13.9916 1308.9725)" class="st2" width="2.3" height="11.9"/>
			</g>
			<g>
				
					<rect x="244.8" y="460.2" transform="matrix(0.2756 -0.9613 0.9613 0.2756 -269.937 574.0829)" class="st2" width="2.3" height="11.9"/>
			</g>
			<g>
				
					<rect x="896" y="647" transform="matrix(0.2758 -0.9612 0.9612 0.2758 22.1353 1335.2141)" class="st2" width="2.3" height="11.9"/>
			</g>
			<g>
				
					<rect x="241.7" y="471.5" transform="matrix(0.242 -0.9703 0.9703 0.242 -279.2107 597.5887)" class="st2" width="2.3" height="11.9"/>
			</g>
			<g>
				
					<rect x="899.1" y="635.5" transform="matrix(0.2417 -0.9703 0.9703 0.2417 60.1825 1359.9189)" class="st2" width="2.3" height="11.9"/>
			</g>
			<g>
				
					<rect x="239" y="483.1" transform="matrix(0.2082 -0.9781 0.9781 0.2082 -288.1832 622.1516)" class="st2" width="2.3" height="11.9"/>
			</g>
			<g>
				
					<rect x="901.7" y="624" transform="matrix(0.2081 -0.9781 0.9781 0.2081 98.8494 1381.9536)" class="st2" width="2.3" height="11.9"/>
			</g>
			<g>
				
					<rect x="234.9" y="506.4" transform="matrix(0.1392 -0.9903 0.9903 0.1392 -304.1213 674.8165)" class="st2" width="2.3" height="11.9"/>
			</g>
			<g>
				
					<rect x="905.9" y="600.6" transform="matrix(0.1392 -0.9903 0.9903 0.1392 180.1534 1420.3237)" class="st2" width="2.3" height="11.9"/>
			</g>
			<g>
				
					<rect x="233.4" y="518.1" transform="matrix(0.1047 -0.9945 0.9945 0.1047 -311.1042 702.4512)" class="st2" width="2.3" height="11.9"/>
			</g>
			<g>
				
					<rect x="907.3" y="588.9" transform="matrix(0.1047 -0.9945 0.9945 0.1047 221.7554 1436.0354)" class="st2" width="2.3" height="11.9"/>
			</g>
			<g>
				
					<rect x="232.5" y="529.9" transform="matrix(6.983303e-02 -0.9976 0.9976 6.983303e-02 -317.2791 731.4982)" class="st2" width="2.3" height="11.9"/>
			</g>
			<g>
				
					<rect x="908.4" y="577.2" transform="matrix(6.960487e-02 -0.9976 0.9976 6.960487e-02 264.5183 1449.8293)" class="st2" width="2.3" height="11.9"/>
			</g>
			<g>
				
					<rect x="231.8" y="541.7" transform="matrix(3.513127e-02 -0.9994 0.9994 3.513127e-02 -322.5516 761.2626)" class="st2" width="2.3" height="11.9"/>
			</g>
			<g>
				
					<rect x="909" y="565.4" transform="matrix(3.491054e-02 -0.9994 0.9994 3.491054e-02 307.3784 1460.9604)" class="st2" width="2.3" height="11.9"/>
			</g>
			<g>
				
					<rect x="227" y="570.2" transform="matrix(0.9994 -3.481957e-02 3.481957e-02 0.9994 -19.7531 8.4578)" class="st2" width="11.9" height="2.3"/>
			</g>
			<g>
				
					<rect x="904.2" y="546.5" transform="matrix(0.9994 -3.481957e-02 3.481957e-02 0.9994 -18.5171 32.0233)" class="st2" width="11.9" height="2.3"/>
			</g>
			<g>
				
					<rect x="227.7" y="582" transform="matrix(0.9976 -6.958643e-02 6.958643e-02 0.9976 -40.0136 17.6731)" class="st2" width="11.9" height="2.3"/>
			</g>
			<g>
				
					<rect x="903.5" y="534.7" transform="matrix(0.9976 -6.958643e-02 6.958643e-02 0.9976 -35.0842 64.5859)" class="st2" width="11.9" height="2.3"/>
			</g>
			<g>
				
					<rect x="228.7" y="593.7" transform="matrix(0.9945 -0.1044 0.1044 0.9945 -60.8199 27.7475)" class="st2" width="11.9" height="2.3"/>
			</g>
			<g>
				
					<rect x="902.5" y="522.9" transform="matrix(0.9945 -0.105 0.105 0.9945 -50.0042 98.2835)" class="st2" width="11.9" height="2.3"/>
			</g>
			<g>
				
					<rect x="230.1" y="605.5" transform="matrix(0.9903 -0.1392 0.1392 0.9903 -82.1476 38.765)" class="st2" width="11.9" height="2.3"/>
			</g>
			<g>
				
					<rect x="901.1" y="511.2" transform="matrix(0.9903 -0.1392 0.1392 0.9903 -62.4868 131.2497)" class="st2" width="11.9" height="2.3"/>
			</g>
			<g>
				
					<rect x="234.2" y="628.8" transform="matrix(0.9782 -0.2076 0.2076 0.9782 -125.5489 63.5777)" class="st2" width="11.9" height="2.3"/>
			</g>
			<g>
				
					<rect x="897" y="487.9" transform="matrix(0.9782 -0.2076 0.2076 0.9782 -81.8589 198.1053)" class="st2" width="11.9" height="2.3"/>
			</g>
			<g>
				
					<rect x="236.9" y="640.3" transform="matrix(0.9703 -0.2419 0.2419 0.9703 -147.9478 77.8021)" class="st2" width="11.9" height="2.3"/>
			</g>
			<g>
				
					<rect x="894.3" y="476.3" transform="matrix(0.9703 -0.2419 0.2419 0.9703 -88.7699 231.9556)" class="st2" width="11.9" height="2.3"/>
			</g>
			<g>
				
					<rect x="240" y="651.7" transform="matrix(0.9613 -0.2755 0.2755 0.9613 -170.3421 93.0177)" class="st2" width="11.9" height="2.3"/>
			</g>
			<g>
				
					<rect x="891.2" y="465" transform="matrix(0.9613 -0.2755 0.2755 0.9613 -93.7116 265.2077)" class="st2" width="11.9" height="2.3"/>
			</g>
			<g>
				
					<rect x="243.4" y="663" transform="matrix(0.9512 -0.3087 0.3087 0.9512 -192.8434 109.4114)" class="st2" width="11.9" height="2.3"/>
			</g>
			<g>
				
					<rect x="887.8" y="453.7" transform="matrix(0.951 -0.3092 0.3092 0.951 -96.8385 298.6401)" class="st2" width="11.9" height="2.3"/>
			</g>
			<g>
				
					<rect x="251.5" y="685.2" transform="matrix(0.9271 -0.3748 0.3748 0.9271 -238.4862 146.511)" class="st2" width="11.9" height="2.3"/>
			</g>
			<g>
				
					<rect x="879.7" y="431.4" transform="matrix(0.9271 -0.3748 0.3748 0.9271 -97.5742 363.4689)" class="st2" width="11.9" height="2.3"/>
			</g>
			<g>
				
					<rect x="256.1" y="696.1" transform="matrix(0.9135 -0.4068 0.4068 0.9135 -260.9877 166.8949)" class="st2" width="11.9" height="2.3"/>
			</g>
			<g>
				
					<rect x="875.1" y="420.6" transform="matrix(0.9136 -0.4066 0.4066 0.9136 -95.3621 394.6784)" class="st2" width="11.9" height="2.3"/>
			</g>
			<g>
				
					<rect x="261.1" y="706.8" transform="matrix(0.8989 -0.4381 0.4381 0.8989 -283.1505 188.552)" class="st2" width="11.9" height="2.3"/>
			</g>
			<g>
				
					<rect x="870.1" y="409.8" transform="matrix(0.8987 -0.4385 0.4385 0.8987 -91.4791 425.7563)" class="st2" width="11.9" height="2.3"/>
			</g>
			<g>
				
					<rect x="266.5" y="717.4" transform="matrix(0.883 -0.4694 0.4694 0.883 -305.4146 211.9622)" class="st2" width="11.9" height="2.3"/>
			</g>
			<g>
				
					<rect x="864.7" y="399.3" transform="matrix(0.883 -0.4694 0.4694 0.883 -86.1128 455.5488)" class="st2" width="11.9" height="2.3"/>
			</g>
			<g>
				
					<rect x="278.3" y="737.9" transform="matrix(0.8481 -0.5298 0.5298 0.8481 -348.3879 262.8457)" class="st2" width="11.9" height="2.3"/>
			</g>
			<g>
				
					<rect x="852.9" y="378.8" transform="matrix(0.8481 -0.5298 0.5298 0.8481 -70.8637 512.7225)" class="st2" width="11.9" height="2.3"/>
			</g>
			<g>
				
					<rect x="284.9" y="747.8" transform="matrix(0.8291 -0.5592 0.5592 0.8291 -369.0585 290.6337)" class="st2" width="11.9" height="2.3"/>
			</g>
			<g>
				
					<rect x="846.4" y="368.9" transform="matrix(0.829 -0.5592 0.5592 0.829 -61.1978 539.8989)" class="st2" width="11.9" height="2.3"/>
			</g>
			<g>
				
					<rect x="291.5" y="757.5" transform="matrix(0.8091 -0.5877 0.5877 0.8091 -389.0677 319.6696)" class="st2" width="11.9" height="2.3"/>
			</g>
			<g>
				
					<rect x="839.6" y="359.2" transform="matrix(0.8088 -0.588 0.588 0.8088 -50.253 566.118)" class="st2" width="11.9" height="2.3"/>
			</g>
			<g>
				
					<rect x="298.6" y="766.9" transform="matrix(0.7882 -0.6154 0.6154 0.7882 -408.1689 350.0926)" class="st2" width="11.9" height="2.3"/>
			</g>
			<g>
				
					<rect x="832.5" y="349.8" transform="matrix(0.788 -0.6157 0.6157 0.788 -38.3053 590.6529)" class="st2" width="11.9" height="2.3"/>
			</g>
			<g>
				
					<rect x="313.8" y="785" transform="matrix(0.7432 -0.6691 0.6691 0.7432 -443.8783 415.8578)" class="st2" width="11.9" height="2.3"/>
			</g>
			<g>
				
					<rect x="817.3" y="331.7" transform="matrix(0.7432 -0.6691 0.6691 0.7432 -11.2512 636.329)" class="st2" width="11.9" height="2.3"/>
			</g>
			<g>
				
					<rect x="321.9" y="793.7" transform="matrix(0.7193 -0.6947 0.6947 0.7193 -460.1475 450.8876)" class="st2" width="11.9" height="2.3"/>
			</g>
			<g>
				
					<rect x="809.2" y="323" transform="matrix(0.7195 -0.6944 0.6944 0.7195 3.5212 657.0067)" class="st2" width="11.9" height="2.3"/>
			</g>
			<g>
				
					<rect x="330.3" y="801.9" transform="matrix(0.6947 -0.7193 0.7193 0.6947 -474.9989 487.0395)" class="st2" width="11.9" height="2.3"/>
			</g>
			<g>
				
					<rect x="800.9" y="314.6" transform="matrix(0.6947 -0.7193 0.7193 0.6947 19.188 676.7944)" class="st2" width="11.9" height="2.3"/>
			</g>
			<g>
				
					<rect x="338.9" y="810.1" transform="matrix(0.6691 -0.7432 0.7432 0.6691 -488.8054 524.7685)" class="st2" width="11.9" height="2.3"/>
			</g>
			<g>
				
					<rect x="792.3" y="306.6" transform="matrix(0.6691 -0.7432 0.7432 0.6691 35.4639 695.0983)" class="st2" width="11.9" height="2.3"/>
			</g>
			<g>
				
					<rect x="357" y="825.3" transform="matrix(0.6157 -0.788 0.788 0.6157 -511.771 603.6517)" class="st2" width="11.9" height="2.3"/>
			</g>
			<g>
				
					<rect x="774.2" y="291.3" transform="matrix(0.6157 -0.788 0.788 0.6157 69.3399 727.1642)" class="st2" width="11.9" height="2.3"/>
			</g>
			<g>
				
					<rect x="366.5" y="832.4" transform="matrix(0.5881 -0.8088 0.8088 0.5881 -520.744 644.5664)" class="st2" width="11.9" height="2.3"/>
			</g>
			<g>
				
					<rect x="764.7" y="284.3" transform="matrix(0.5881 -0.8088 0.8088 0.5881 86.59 740.9042)" class="st2" width="11.9" height="2.3"/>
			</g>
			<g>
				
					<rect x="376.2" y="839.2" transform="matrix(0.5592 -0.8291 0.8291 0.5592 -528.188 687.2986)" class="st2" width="11.9" height="2.3"/>
			</g>
			<g>
				
					<rect x="755.1" y="277.5" transform="matrix(0.5592 -0.8291 0.8291 0.5592 104.4729 753.7567)" class="st2" width="11.9" height="2.3"/>
			</g>
			<g>
				
					<rect x="386.1" y="845.6" transform="matrix(0.5298 -0.8481 0.8481 0.5298 -533.7842 730.575)" class="st2" width="11.9" height="2.3"/>
			</g>
			<g>
				
					<rect x="745.1" y="271.1" transform="matrix(0.5301 -0.8479 0.8479 0.5301 122.0942 764.7557)" class="st2" width="11.9" height="2.3"/>
			</g>
			<g>
				
					<rect x="406.5" y="857.3" transform="matrix(0.4694 -0.883 0.883 0.4694 -539.1532 819.7463)" class="st2" width="11.9" height="2.3"/>
			</g>
			<g>
				
					<rect x="724.6" y="259.2" transform="matrix(0.4694 -0.883 0.883 0.4694 157.7457 783.1749)" class="st2" width="11.9" height="2.3"/>
			</g>
			<g>
				
					<rect x="417.1" y="862.8" transform="matrix(0.4386 -0.8987 0.8987 0.4386 -538.8849 865.1917)" class="st2" width="11.9" height="2.3"/>
			</g>
			<g>
				
					<rect x="714.1" y="253.8" transform="matrix(0.4387 -0.8986 0.8986 0.4387 175.0024 790.1796)" class="st2" width="11.9" height="2.3"/>
			</g>
			<g>
				
					<rect x="427.8" y="867.8" transform="matrix(0.4068 -0.9135 0.9135 0.4068 -536.5019 911.6622)" class="st2" width="11.9" height="2.3"/>
			</g>
			<g>
				
					<rect x="703.4" y="248.8" transform="matrix(0.4066 -0.9136 0.9136 0.4066 192.5428 796.43)" class="st2" width="11.9" height="2.3"/>
			</g>
			<g>
				
					<rect x="438.7" y="872.4" transform="matrix(0.3748 -0.9271 0.9271 0.3748 -531.8629 958.3069)" class="st2" width="11.9" height="2.3"/>
			</g>
			<g>
				
					<rect x="692.4" y="244.2" transform="matrix(0.3748 -0.9271 0.9271 0.3748 209.1745 800.853)" class="st2" width="11.9" height="2.3"/>
			</g>
			<g>
				
					<rect x="460.9" y="880.5" transform="matrix(0.3092 -0.951 0.951 0.3092 -515.9501 1053.0045)" class="st2" width="11.9" height="2.3"/>
			</g>
			<g>
				
					<rect x="670.3" y="236.1" transform="matrix(0.3092 -0.951 0.951 0.3092 241.5264 807.0407)" class="st2" width="11.9" height="2.3"/>
			</g>
			<g>
				
					<rect x="472.2" y="883.9" transform="matrix(0.2755 -0.9613 0.9613 0.2755 -504.4077 1100.922)" class="st2" width="11.9" height="2.3"/>
			</g>
			<g>
				
					<rect x="659" y="232.6" transform="matrix(0.2756 -0.9613 0.9613 0.2756 256.957 808.5559)" class="st2" width="11.9" height="2.3"/>
			</g>
			<g>
				
					<rect x="483.6" y="887.1" transform="matrix(0.2419 -0.9703 0.9703 0.2419 -490.7296 1148.3857)" class="st2" width="11.9" height="2.3"/>
			</g>
			<g>
				
					<rect x="647.5" y="229.7" transform="matrix(0.2419 -0.9703 0.9703 0.2419 271.4323 809.0504)" class="st2" width="11.9" height="2.3"/>
			</g>
			<g>
				
					<rect x="495.2" y="889.7" transform="matrix(0.2082 -0.9781 0.9781 0.2082 -474.4827 1195.5066)" class="st2" width="11.9" height="2.3"/>
			</g>
			<g>
				
					<rect x="636.1" y="227" transform="matrix(0.2082 -0.9781 0.9781 0.2082 285.2058 808.5786)" class="st2" width="11.9" height="2.3"/>
			</g>
			<g>
				
					<rect x="518.5" y="893.8" transform="matrix(0.1392 -0.9903 0.9903 0.1392 -434.8246 1289.6962)" class="st2" width="11.9" height="2.3"/>
			</g>
			<g>
				
					<rect x="612.8" y="222.9" transform="matrix(0.1392 -0.9903 0.9903 0.1392 310.7569 805.5301)" class="st2" width="11.9" height="2.3"/>
			</g>
			<g>
				
					<rect x="530.1" y="895.2" transform="matrix(0.1044 -0.9945 0.9945 0.1044 -411.3546 1335.8516)" class="st2" width="11.9" height="2.3"/>
			</g>
			<g>
				
					<rect x="601" y="221.4" transform="matrix(0.105 -0.9945 0.9945 0.105 321.8971 802.7698)" class="st2" width="11.9" height="2.3"/>
			</g>
			<g>
				
					<rect x="542" y="896.2" transform="matrix(6.958643e-02 -0.9976 0.9976 6.958643e-02 -385.3469 1381.5352)" class="st2" width="11.9" height="2.3"/>
			</g>
			<g>
				
					<rect x="589.2" y="220.4" transform="matrix(6.958643e-02 -0.9976 0.9976 6.958643e-02 332.7614 799.8469)" class="st2" width="11.9" height="2.3"/>
			</g>
			<g>
				
					<rect x="553.8" y="896.8" transform="matrix(3.481957e-02 -0.9994 0.9994 3.481957e-02 -357.1997 1426.1066)" class="st2" width="11.9" height="2.3"/>
			</g>
			<g>
				
					<rect x="577.4" y="219.8" transform="matrix(3.538752e-02 -0.9994 0.9994 3.538752e-02 341.9683 796.1039)" class="st2" width="11.9" height="2.3"/>
			</g>
		</g>
	</g>
	<g>
		<path class="st2" d="M571.5,932.5c-99.6,0-193.3-38.8-263.7-109.2S198.6,659.2,198.6,559.6s38.8-193.3,109.2-263.7
			s164.1-109.2,263.7-109.2s193.3,38.8,263.7,109.2S944.4,460,944.4,559.6s-38.8,193.3-109.2,263.7S671.2,932.5,571.5,932.5z
			 M571.5,191.8c-98.2,0-190.5,38.2-260,107.7c-69.4,69.4-107.7,161.8-107.7,260S242,750,311.5,819.5
			c69.4,69.4,161.8,107.7,260,107.7S762,889,831.5,819.5c69.4-69.4,107.7-161.8,107.7-260S901,369,831.5,299.5
			C762.1,230.1,669.7,191.8,571.5,191.8z"/>
	</g>
</g>
<g>
	<path class="st2" d="M576,787.5c-2,0-3.6-1.6-3.6-3.6s1.6-3.7,3.6-3.7c2.8-0.1,5.7-0.2,8.6-0.3c2-0.1,3.7,1.4,3.9,3.4
		c0.1,2-1.4,3.7-3.4,3.9C582,787.4,579,787.5,576,787.5C576.1,787.5,576,787.5,576,787.5z M558.6,787.2c-0.1,0-0.1,0-0.2,0
		c-2.9-0.2-5.9-0.4-8.8-0.7c-2-0.2-3.5-2-3.3-4s2-3.5,4-3.3c2.8,0.3,5.7,0.5,8.5,0.6c2,0.1,3.6,1.8,3.4,3.9
		C562.2,785.7,560.5,787.2,558.6,787.2z M602,785.5c-1.8,0-3.4-1.3-3.6-3.2c-0.3-2,1.1-3.8,3.1-4.1c2.8-0.4,5.7-0.8,8.5-1.3
		c2-0.4,3.9,1,4.2,3s-1,3.9-3,4.2c-2.9,0.5-5.8,1-8.7,1.4C602.4,785.5,602.2,785.5,602,785.5z M532.7,784.2c-0.2,0-0.4,0-0.6-0.1
		c-2.9-0.5-5.8-1.1-8.7-1.7c-2-0.4-3.2-2.4-2.8-4.3c0.4-2,2.4-3.2,4.3-2.8c2.8,0.6,5.6,1.1,8.4,1.6c2,0.3,3.3,2.2,3,4.2
		C536,783,534.4,784.2,532.7,784.2z M627.6,780.5c-1.6,0-3.1-1.1-3.5-2.7c-0.5-2,0.7-3.9,2.6-4.4c2.8-0.7,5.5-1.5,8.2-2.3
		c1.9-0.6,4,0.5,4.5,2.5c0.6,1.9-0.5,4-2.5,4.5c-2.8,0.8-5.7,1.6-8.5,2.4C628.2,780.5,627.9,780.5,627.6,780.5z M507.3,778.3
		c-0.3,0-0.7,0-1-0.2c-2.8-0.8-5.6-1.7-8.4-2.7c-1.9-0.7-2.9-2.7-2.3-4.6c0.7-1.9,2.7-2.9,4.6-2.3c2.7,0.9,5.4,1.8,8.2,2.6
		c1.9,0.6,3,2.6,2.5,4.5C510.3,777.2,508.9,778.3,507.3,778.3z M652.5,772.5c-1.5,0-2.8-0.9-3.4-2.3c-0.7-1.9,0.2-4,2.1-4.7
		c2.6-1,5.3-2.1,7.9-3.2c1.9-0.8,4,0.1,4.8,1.9c0.8,1.9-0.1,4-1.9,4.8c-2.7,1.2-5.4,2.3-8.2,3.3
		C653.4,772.5,652.9,772.5,652.5,772.5z M482.8,769.3c-0.5,0-1-0.1-1.4-0.3c-2.7-1.2-5.4-2.4-8.1-3.7c-1.8-0.9-2.6-3.1-1.7-4.9
		c0.9-1.8,3.1-2.6,4.9-1.7c2.6,1.2,5.2,2.4,7.8,3.5c1.9,0.8,2.7,2.9,1.9,4.8C485.5,768.5,484.2,769.3,482.8,769.3z M676.2,761.7
		c-1.3,0-2.6-0.7-3.2-1.9c-0.9-1.8-0.3-4,1.5-4.9c2.5-1.3,5-2.7,7.5-4.1c1.7-1,4-0.4,5,1.3s0.4,4-1.3,5c-2.5,1.5-5.1,2.9-7.7,4.3
		C677.4,761.6,676.8,761.7,676.2,761.7z M459.4,757.6c-0.6,0-1.2-0.2-1.8-0.5c-2.5-1.5-5.1-3-7.6-4.6c-1.7-1.1-2.2-3.3-1.1-5
		s3.3-2.2,5-1.1c2.4,1.5,4.9,3,7.3,4.4c1.7,1,2.3,3.2,1.3,5C461.9,757,460.7,757.6,459.4,757.6z M698.5,748.2c-1.2,0-2.3-0.6-3-1.6
		c-1.1-1.7-0.7-3.9,0.9-5.1c2.3-1.6,4.7-3.3,7-5c1.6-1.2,3.9-0.9,5.1,0.7c1.2,1.6,0.9,3.9-0.7,5.1c-2.4,1.8-4.8,3.5-7.2,5.1
		C699.9,748,699.2,748.2,698.5,748.2z M437.6,743.3c-0.8,0-1.5-0.2-2.2-0.7c-2.4-1.8-4.7-3.6-7-5.4c-1.6-1.3-1.8-3.6-0.5-5.1
		c1.3-1.6,3.6-1.8,5.1-0.5c2.2,1.8,4.5,3.6,6.8,5.2c1.6,1.2,2,3.5,0.7,5.1C439.8,742.7,438.7,743.3,437.6,743.3z M719.1,732.2
		c-1,0-2-0.4-2.8-1.2c-1.3-1.5-1.2-3.8,0.3-5.2c2.1-1.9,4.3-3.8,6.3-5.8c1.5-1.4,3.8-1.3,5.2,0.1c1.4,1.5,1.3,3.8-0.1,5.2
		c-2.1,2-4.3,4-6.5,5.9C720.8,731.9,720,732.2,719.1,732.2z M417.6,726.5c-0.9,0-1.8-0.3-2.5-1c-2.1-2-4.3-4.1-6.3-6.2
		c-1.4-1.4-1.4-3.8,0-5.2s3.8-1.4,5.2,0c2,2,4,4,6.1,6c1.5,1.4,1.5,3.7,0.2,5.2C419.5,726.1,418.6,726.5,417.6,726.5z M737.7,714
		c-0.9,0-1.8-0.3-2.5-0.9c-1.5-1.4-1.6-3.7-0.2-5.2c1.9-2.1,3.8-4.3,5.6-6.5c1.3-1.5,3.6-1.7,5.1-0.4s1.7,3.6,0.4,5.1
		c-1.9,2.2-3.8,4.5-5.8,6.7C739.7,713.6,738.7,714,737.7,714z M399.7,707.5c-1,0-2.1-0.4-2.8-1.3c-1.9-2.2-3.8-4.6-5.6-6.9
		c-1.2-1.6-1-3.9,0.6-5.1c1.6-1.2,3.9-1,5.1,0.6c1.7,2.2,3.5,4.5,5.4,6.7c1.3,1.5,1.1,3.8-0.4,5.1
		C401.3,707.2,400.5,707.5,399.7,707.5z M754.1,693.7c-0.7,0-1.5-0.2-2.1-0.7c-1.6-1.2-2-3.5-0.8-5.1c1.7-2.3,3.3-4.7,4.9-7.1
		c1.1-1.7,3.4-2.1,5.1-1c1.7,1.1,2.1,3.4,1,5.1c-1.6,2.5-3.3,4.9-5,7.3C756.4,693.1,755.3,693.7,754.1,693.7z M384.1,686.6
		c-1.2,0-2.3-0.6-3.1-1.6c-1.6-2.4-3.2-5-4.7-7.5c-1-1.7-0.5-4,1.2-5s4-0.5,5,1.2c1.5,2.4,3,4.9,4.6,7.2c1.1,1.7,0.6,3.9-1,5.1
		C385.5,686.4,384.8,686.6,384.1,686.6z M768.1,671.6c-0.6,0-1.2-0.1-1.8-0.5c-1.8-1-2.4-3.2-1.4-5c1.4-2.5,2.7-5,4-7.6
		c0.9-1.8,3.1-2.5,4.9-1.6c1.8,0.9,2.5,3.1,1.6,4.9c-1.3,2.6-2.7,5.3-4.1,7.8C770.6,670.9,769.4,671.6,768.1,671.6z M371,664.1
		c-1.3,0-2.6-0.7-3.3-2c-1.3-2.6-2.6-5.3-3.8-8c-0.8-1.8,0-4,1.8-4.8s4,0,4.8,1.8c1.2,2.6,2.4,5.2,3.7,7.7c0.9,1.8,0.2,4-1.6,4.9
		C372.1,663.9,371.6,664.1,371,664.1z M779.4,648c-0.5,0-0.9-0.1-1.4-0.3c-1.9-0.8-2.8-2.9-2-4.8c1.1-2.6,2.1-5.3,3.1-8
		c0.7-1.9,2.8-2.9,4.7-2.2s2.9,2.8,2.2,4.7c-1,2.8-2.1,5.5-3.2,8.3C782.2,647.2,780.8,648,779.4,648z M360.6,640.1
		c-1.5,0-2.9-0.9-3.4-2.4c-1-2.8-2-5.6-2.9-8.4c-0.6-1.9,0.4-4,2.4-4.6c1.9-0.6,4,0.4,4.6,2.4c0.9,2.7,1.8,5.4,2.8,8.1
		c0.7,1.9-0.3,4-2.2,4.7C361.5,640.1,361.1,640.1,360.6,640.1z M787.8,623.3c-0.3,0-0.7,0-1-0.1c-1.9-0.5-3.1-2.6-2.5-4.5
		c0.8-2.7,1.5-5.5,2.1-8.3c0.5-2,2.4-3.2,4.4-2.7s3.2,2.4,2.7,4.4c-0.7,2.9-1.4,5.7-2.2,8.6C790.9,622.3,789.4,623.3,787.8,623.3z
		 M353.1,615.2c-1.7,0-3.2-1.1-3.5-2.8c-0.7-2.9-1.3-5.8-1.9-8.6c-0.4-2,0.9-3.9,2.9-4.3c2-0.4,3.9,0.9,4.3,2.9
		c0.5,2.8,1.2,5.6,1.8,8.4c0.5,2-0.7,3.9-2.7,4.4C353.7,615.1,353.4,615.2,353.1,615.2z M793.3,597.8c-0.2,0-0.4,0-0.6,0
		c-2-0.3-3.4-2.2-3-4.2c0.4-2.8,0.8-5.7,1.1-8.5c0.2-2,2-3.4,4-3.2s3.4,2,3.2,4c-0.3,2.9-0.7,5.9-1.2,8.8
		C796.6,596.5,795.1,597.8,793.3,597.8z M348.6,589.5c-1.8,0-3.4-1.4-3.6-3.2c-0.3-2.9-0.6-5.9-0.9-8.8c-0.2-2,1.3-3.8,3.4-3.9
		c2-0.2,3.8,1.3,3.9,3.4c0.2,2.8,0.5,5.7,0.8,8.5c0.2,2-1.2,3.8-3.2,4.1C348.9,589.4,348.7,589.5,348.6,589.5z M795.8,571.8
		L795.8,571.8c-2.1-0.1-3.7-1.8-3.6-3.8c0.1-2.8,0.2-5.7,0.2-8.6v-0.5c0-2,1.6-3.7,3.6-3.7l0,0c2,0,3.6,1.6,3.7,3.6v0.5
		c0,3-0.1,5.9-0.2,8.9C799.4,570.3,797.8,571.8,795.8,571.8z M347.1,563.4c-2,0-3.7-1.6-3.7-3.7v-0.3c0-2.8,0.1-5.7,0.2-8.6
		c0.1-2,1.8-3.6,3.8-3.5s3.6,1.8,3.5,3.8c-0.1,2.7-0.2,5.5-0.2,8.3v0.3C350.7,561.8,349.1,563.4,347.1,563.4z M795.3,545.2
		c-1.9,0-3.5-1.5-3.6-3.4c-0.2-2.8-0.5-5.7-0.8-8.5c-0.2-2,1.2-3.8,3.2-4.1c2-0.2,3.8,1.2,4.1,3.2c0.3,2.9,0.6,5.9,0.9,8.8
		c0.2,2-1.3,3.8-3.4,3.9C795.5,545.2,795.4,545.2,795.3,545.2z M348.6,537.4c-0.1,0-0.3,0-0.4,0c-2-0.2-3.4-2-3.2-4
		c0.3-2.9,0.7-5.9,1.2-8.8c0.3-2,2.2-3.4,4.2-3.1c2,0.3,3.4,2.2,3.1,4.2c-0.4,2.8-0.8,5.7-1.1,8.5C352,536,350.4,537.4,348.6,537.4z
		 M791.7,519.4c-1.7,0-3.2-1.2-3.6-2.9c-0.6-2.8-1.2-5.6-1.8-8.4c-0.5-2,0.7-3.9,2.7-4.4s3.9,0.7,4.4,2.7c0.7,2.8,1.3,5.8,1.9,8.6
		c0.4,2-0.9,3.9-2.9,4.3C792.2,519.3,791.9,519.4,791.7,519.4z M353,511.6c-0.3,0-0.6,0-0.8-0.1c-2-0.5-3.2-2.4-2.7-4.4
		c0.7-2.9,1.4-5.7,2.2-8.6c0.5-1.9,2.5-3.1,4.5-2.5c1.9,0.5,3.1,2.5,2.5,4.5c-0.8,2.7-1.5,5.5-2.1,8.3
		C356.2,510.5,354.7,511.6,353,511.6z M785.2,494.1c-1.5,0-3-1-3.5-2.5c-0.9-2.7-1.8-5.4-2.8-8.1c-0.7-1.9,0.3-4,2.2-4.7
		s4,0.3,4.7,2.2c1,2.8,2,5.6,2.9,8.4c0.6,1.9-0.4,4-2.4,4.6C785.9,494.1,785.5,494.1,785.2,494.1z M360.5,486.6
		c-0.4,0-0.8-0.1-1.2-0.2c-1.9-0.7-2.9-2.8-2.2-4.7c1-2.8,2.1-5.5,3.2-8.3c0.8-1.9,2.9-2.8,4.8-2s2.8,2.9,2,4.8
		c-1.1,2.6-2.1,5.3-3.1,8C363.4,485.7,362,486.6,360.5,486.6z M775.7,469.8c-1.4,0-2.7-0.8-3.3-2.1c-1.2-2.6-2.4-5.2-3.7-7.7
		c-0.9-1.8-0.2-4,1.6-4.9s4-0.2,4.9,1.6c1.3,2.6,2.6,5.3,3.8,8c0.8,1.8,0,4-1.8,4.8C776.7,469.7,776.2,469.8,775.7,469.8z
		 M370.8,462.6c-0.6,0-1.1-0.1-1.6-0.4c-1.8-0.9-2.5-3.1-1.6-4.9c1.3-2.6,2.7-5.3,4.1-7.8c1-1.8,3.2-2.4,5-1.4s2.4,3.2,1.4,5
		c-1.4,2.5-2.7,5.1-4,7.6C373.4,461.9,372.1,462.6,370.8,462.6z M763.5,446.8c-1.2,0-2.4-0.6-3.1-1.8c-1.5-2.4-3-4.9-4.6-7.2
		c-1.1-1.7-0.7-3.9,1-5.1c1.7-1.1,3.9-0.7,5.1,1c1.6,2.4,3.2,4.9,4.7,7.5c1,1.7,0.5,4-1.2,5C764.8,446.6,764.1,446.8,763.5,446.8z
		 M383.8,440c-0.7,0-1.4-0.2-2-0.6c-1.7-1.1-2.2-3.4-1-5.1c1.6-2.4,3.3-4.9,5-7.3c1.2-1.6,3.5-2,5.1-0.8s2,3.5,0.8,5.1
		c-1.7,2.3-3.3,4.7-4.8,7.1C386.2,439.4,385,440,383.8,440z M748.7,425.3c-1.1,0-2.2-0.5-2.9-1.4c-1.7-2.2-3.6-4.5-5.4-6.6
		c-1.3-1.5-1.1-3.8,0.4-5.1c1.5-1.3,3.8-1.1,5.1,0.4c1.9,2.2,3.8,4.6,5.6,6.9c1.2,1.6,1,3.9-0.6,5.1
		C750.3,425.1,749.5,425.3,748.7,425.3z M399.4,419.1c-0.8,0-1.7-0.3-2.3-0.9c-1.5-1.3-1.7-3.6-0.5-5.1c1.9-2.2,3.8-4.5,5.8-6.7
		c1.4-1.5,3.7-1.6,5.2-0.3c1.5,1.4,1.6,3.7,0.3,5.2c-1.9,2.1-3.8,4.3-5.6,6.5C401.5,418.6,400.5,419.1,399.4,419.1z M731.5,405.7
		c-0.9,0-1.9-0.4-2.6-1.1c-2-2-4.1-4-6.1-6c-1.5-1.4-1.5-3.7-0.2-5.2c1.4-1.5,3.7-1.5,5.2-0.2c2.1,2,4.3,4.1,6.3,6.2
		c1.4,1.4,1.4,3.7,0,5.2C733.3,405.3,732.4,405.7,731.5,405.7z M417.3,400.1c-1,0-1.9-0.4-2.7-1.1c-1.4-1.5-1.3-3.8,0.1-5.2
		c2.1-2,4.3-4,6.5-6c1.5-1.3,3.8-1.2,5.2,0.3c1.3,1.5,1.2,3.8-0.3,5.2c-2.1,1.9-4.3,3.8-6.3,5.8
		C419.1,399.7,418.2,400.1,417.3,400.1z M712.1,388.2c-0.8,0-1.6-0.3-2.3-0.8c-2.2-1.8-4.5-3.6-6.8-5.2c-1.6-1.2-2-3.5-0.8-5.1
		s3.5-2,5.1-0.8c2.3,1.7,4.7,3.6,7,5.4c1.6,1.3,1.8,3.6,0.6,5.1C714.3,387.7,713.2,388.2,712.1,388.2z M437.3,383.3
		c-1.1,0-2.2-0.5-2.9-1.5c-1.2-1.6-0.9-3.9,0.7-5.1c2.3-1.8,4.8-3.5,7.2-5.2c1.7-1.1,3.9-0.7,5.1,0.9c1.1,1.7,0.7,3.9-0.9,5.1
		c-2.3,1.6-4.7,3.3-6.9,5C438.8,383,438,383.3,437.3,383.3z M690.9,373c-0.7,0-1.3-0.2-1.9-0.6c-2.4-1.5-4.9-3-7.3-4.4
		c-1.7-1-2.3-3.2-1.3-5c1-1.7,3.2-2.3,5-1.3c2.5,1.5,5.1,3,7.6,4.6c1.7,1.1,2.2,3.3,1.1,5C693.3,372.4,692.1,373,690.9,373z
		 M459,368.9c-1.3,0-2.5-0.7-3.2-1.8c-1-1.7-0.4-4,1.3-5c2.5-1.5,5.1-2.9,7.7-4.3c1.8-0.9,4-0.3,4.9,1.5s0.3,4-1.5,4.9
		c-2.5,1.3-5,2.7-7.5,4.1C460.3,368.7,459.7,368.9,459,368.9z M668,360.4c-0.5,0-1.1-0.1-1.6-0.4c-2.6-1.2-5.2-2.4-7.8-3.5
		c-1.9-0.8-2.7-2.9-1.9-4.8s2.9-2.7,4.8-1.9c2.7,1.2,5.4,2.4,8.1,3.7c1.8,0.9,2.6,3,1.7,4.9C670.7,359.7,669.4,360.4,668,360.4z
		 M482.3,357.1c-1.4,0-2.8-0.8-3.4-2.2c-0.8-1.9,0-4,1.9-4.8c2.7-1.2,5.4-2.3,8.2-3.4c1.9-0.7,4,0.2,4.7,2.1s-0.2,4-2.1,4.7
		c-2.6,1-5.3,2.1-7.9,3.2C483.3,357,482.8,357.1,482.3,357.1z M643.8,350.6c-0.4,0-0.8-0.1-1.2-0.2c-2.7-0.9-5.4-1.8-8.2-2.6
		c-1.9-0.6-3-2.6-2.5-4.5c0.6-1.9,2.6-3,4.5-2.5c2.8,0.8,5.7,1.7,8.4,2.7c1.9,0.6,2.9,2.7,2.3,4.6
		C646.7,349.6,645.3,350.6,643.8,350.6z M506.8,348.2c-1.6,0-3-1-3.5-2.6c-0.6-1.9,0.5-4,2.4-4.5c2.8-0.8,5.7-1.6,8.5-2.4
		c2-0.5,3.9,0.7,4.5,2.6c0.5,2-0.7,3.9-2.6,4.5c-2.8,0.7-5.5,1.5-8.2,2.3C507.5,348.1,507.1,348.2,506.8,348.2z M618.6,343.6
		c-0.3,0-0.5,0-0.8-0.1c-2.8-0.6-5.6-1.1-8.4-1.6c-2-0.3-3.3-2.2-3-4.2s2.2-3.3,4.2-3c2.9,0.5,5.8,1.1,8.7,1.7
		c2,0.4,3.2,2.4,2.8,4.3C621.8,342.5,620.3,343.6,618.6,343.6z M532.2,342.1c-1.7,0-3.3-1.2-3.6-3c-0.4-2,1-3.9,3-4.2
		c2.9-0.5,5.8-1,8.7-1.4c2-0.3,3.8,1.1,4.1,3.1s-1.1,3.8-3.1,4.1c-2.8,0.4-5.7,0.8-8.5,1.3C532.6,342.1,532.4,342.1,532.2,342.1z
		 M592.9,339.7c-0.1,0-0.2,0-0.3,0c-2.8-0.3-5.7-0.5-8.5-0.6c-2-0.1-3.6-1.8-3.4-3.8c0.1-2,1.8-3.6,3.8-3.4c2.9,0.2,5.9,0.4,8.8,0.7
		c2,0.2,3.5,2,3.3,4C596.3,338.3,594.7,339.7,592.9,339.7z M558.1,339.1c-1.9,0-3.5-1.5-3.6-3.4c-0.1-2,1.4-3.7,3.4-3.9
		c2.9-0.2,5.9-0.3,8.8-0.4c2.1,0,3.7,1.6,3.7,3.6s-1.6,3.7-3.6,3.7c-2.8,0.1-5.7,0.2-8.6,0.3C558.2,339.1,558.1,339.1,558.1,339.1z"
		/>
</g>
<g>
	<path class="st2" d="M571.5,678.4c-68.1,0-123.4-55.4-123.4-123.4c0-68.1,55.4-123.4,123.4-123.4S695,486.9,695,555
		C695,623,639.6,678.4,571.5,678.4z M571.5,433.9c-66.7,0-121,54.3-121,121s54.3,121,121,121s121-54.3,121-121
		C692.6,488.2,638.3,433.9,571.5,433.9z"/>
</g>
<g>
	<path class="st2" d="M571.5,700.5C491.3,700.5,426,635.2,426,555s65.3-145.5,145.5-145.5S717,474.7,717,555
		C717,635.2,651.8,700.5,571.5,700.5z M571.5,420.7c-74,0-134.2,60.2-134.2,134.2s60.2,134.2,134.2,134.2S705.8,629,705.8,555
		C705.8,480.9,645.5,420.7,571.5,420.7z"/>
</g>
<g>
	<g>
		<path class="st2" d="M974.3,557.8h-14.5v13.4H976v4h-21V538h20.1v4h-15.3v11.8h14.5V557.8z"/>
		<path class="st2" d="M977.3,576.6h-23.6v-39.9h22.8v6.7h-15.3v9.1h14.5v6.6h-14.5v10.8h16.1V576.6z M956.4,573.9h18.3v-1.4h-16.1
			v-16.1H973v-1.3h-14.5v-14.4h15.3v-1.4h-17.5v34.6H956.4z"/>
	</g>
</g>
<g>
	<g>
		<path class="st2" d="M558.9,174.3V137h5.3l11.9,18.8c2.8,4.4,4.9,8.3,6.7,12.1l0.1-0.1c-0.4-5-0.6-9.5-0.6-15.3V137h4.5v37.3H582
			l-11.8-18.9c-2.6-4.1-5.1-8.4-7-12.4l-0.2,0c0.3,4.7,0.4,9.2,0.4,15.4v15.9L558.9,174.3L558.9,174.3z"/>
		<path class="st2" d="M588.2,175.6h-6.9L569,156.1c-1.7-2.8-3.2-5.2-4.4-7.4c0.1,2.9,0.1,6,0.1,9.7v17.3h-7.2v-39.9h7.3l12.3,19.5
			c1.5,2.3,2.8,4.5,3.9,6.7c-0.1-3-0.2-6-0.2-9.2v-16.9h7.2v39.7H588.2z M582.7,172.9h2.8v-34.6h-1.9v14.3c0,5.4,0.1,10.1,0.5,15.2
			l0.1,0.9l-2,1l-0.7-1.2c-1.8-3.8-3.9-7.7-6.6-12l-11.5-18.2h-3.2v34.6h1.9v-14.6c0-6.2-0.1-10.6-0.4-15.3l-0.1-1l2.3-0.8l0.5,1.1
			c1.6,3.5,3.8,7.4,6.9,12.3L582.7,172.9z"/>
	</g>
</g>
<g>
	<g>
		<path class="st2" d="M562.8,977.9c2.2,1.3,5.3,2.4,8.6,2.4c4.9,0,7.8-2.6,7.8-6.4c0-3.5-2-5.5-7-7.4c-6.1-2.2-9.8-5.3-9.8-10.6
			c0-5.8,4.8-10.1,12-10.1c3.8,0,6.6,0.9,8.2,1.8l-1.3,3.9c-1.2-0.7-3.7-1.8-7.1-1.8c-5.1,0-7,3-7,5.6c0,3.5,2.3,5.2,7.4,7.2
			c6.3,2.4,9.5,5.5,9.5,10.9c0,5.7-4.3,10.7-13,10.7c-3.6,0-7.5-1.1-9.5-2.4L562.8,977.9z"/>
		<path class="st2" d="M571.1,985.7c-3.7,0-7.9-1.1-10.2-2.6l-0.8-0.5l2-6.6l1.5,0.9c2.3,1.4,5.2,2.2,7.9,2.2c4,0,6.5-1.9,6.5-5
			c0-2.4-1-4.2-6.2-6.2c-7.2-2.5-10.7-6.4-10.7-11.8c0-6.7,5.5-11.4,13.4-11.4c4.7,0,7.6,1.3,8.9,2l1,0.5l-2.2,6.5l-1.4-0.8
			c-1.3-0.7-3.6-1.6-6.4-1.6c-4.2,0-5.7,2.3-5.7,4.2c0,2.6,1.5,4,6.6,5.9c5.1,2,10.4,5,10.4,12.2C585.4,979.6,581,985.7,571.1,985.7
			z M563.1,981.3c1.8,0.9,4.9,1.7,7.9,1.7c8.6,0,11.7-4.9,11.7-9.4c0-4.6-2.4-7.3-8.7-9.7c-5.2-2-8.3-4.1-8.3-8.4
			c0-3.3,2.6-6.9,8.4-6.9c2.6,0,4.7,0.6,6.3,1.3l0.5-1.4c-1.3-0.6-3.5-1.2-6.6-1.2c-6.3,0-10.7,3.6-10.7,8.8c0,4.2,2.8,7.1,9,9.3
			c4.8,1.8,7.9,4,7.9,8.7s-3.6,7.7-9.1,7.7c-2.6,0-5.4-0.6-7.8-1.8L563.1,981.3z"/>
	</g>
</g>
<g>
	<g>
		<path class="st2" d="M152.2,548.5l3.5,13.6c0.8,3,1.5,5.7,2,8.5h0.2c0.6-2.7,1.5-5.6,2.4-8.5l4.4-13.7h4.1l4.1,13.4
			c1,3.2,1.8,6,2.4,8.7h0.2c0.4-2.7,1.2-5.5,2-8.7l3.8-13.4h4.8l-8.6,26.8H173l-4.1-12.8c-0.9-3-1.7-5.6-2.4-8.8h-0.1
			c-0.7,3.2-1.5,6-2.4,8.8l-4.3,12.7h-4.4l-8.1-26.8h5V548.5z"/>
		<path class="st2" d="M178.4,576.6H172l-4.4-13.7c-0.4-1.3-0.8-2.6-1.2-3.9c-0.4,1.4-0.8,2.7-1.2,3.9l-4.6,13.6h-6.4l-8.9-29.4h7.8
			l3.8,14.6c0.3,1.2,0.6,2.4,0.9,3.5c0.3-1.2,0.7-2.4,1.1-3.5l4.7-14.6h6l4.4,14.3c0.4,1.3,0.8,2.5,1.1,3.6c0.3-1.2,0.6-2.4,1-3.5
			l4.1-14.4h7.6L178.4,576.6z M174,573.9h2.5l7.8-24.1h-2l-3.5,12.5c-0.8,2.7-1.5,5.7-2,8.5l-0.2,1.1h-2.4l-0.2-1
			c-0.6-2.6-1.3-5.4-2.3-8.6l-3.9-12.4h-2.1l-4.1,12.7c-0.9,2.8-1.7,5.7-2.3,8.3l-0.2,1h-2.3l-0.2-1.1c-0.5-2.7-1.2-5.4-2-8.4
			l-3.3-12.7H149l7.3,24.1h2.5l4-11.8c0.8-2.6,1.7-5.4,2.4-8.7l0.2-1.1h2.2l0.3,1.1c0.6,3.1,1.4,5.7,2.3,8.7L174,573.9z"/>
	</g>
</g>
<g>
	<g>
		<path class="st3" d="M589.3,555.3c0,10.6-8.6,19.2-19.2,19.2c-10.6,0-19.2-8.6-19.2-19.2c0-10.6,8.6-19.2,19.2-19.2
			S589.3,544.7,589.3,555.3z"/>
	</g>
	<g>
		<path class="st4" d="M588.2,555.3c0,10-8.1,18.1-18.1,18.1s-18.1-8.1-18.1-18.1s8.1-18.1,18.1-18.1
			C580.1,537.2,588.2,545.3,588.2,555.3z"/>
	</g>
	<g>
		<path class="st5" d="M580.4,555.3c0,5.7-4.6,10.2-10.2,10.2c-5.7,0-10.2-4.6-10.2-10.2c0-5.7,4.6-10.2,10.2-10.2
			C575.8,545.1,580.4,549.7,580.4,555.3z"/>
	</g>
	<g>
		<path class="st6" d="M579,555.3c0,4.9-4,8.9-8.9,8.9s-8.9-4-8.9-8.9s4-8.9,8.9-8.9C575,546.5,579,550.4,579,555.3z"/>
	</g>
	<g>
		<path class="st7" d="M577.6,555.3c0,4.1-3.4,7.5-7.5,7.5s-7.5-3.3-7.5-7.5c0-4.1,3.4-7.5,7.5-7.5
			C574.2,547.9,577.6,551.2,577.6,555.3z"/>
	</g>
	<g>
		<path class="st2" d="M575.4,555.3c0,2.9-2.4,5.3-5.3,5.3c-2.9,0-5.3-2.4-5.3-5.3c0-2.9,2.4-5.3,5.3-5.3
			C573,550.1,575.4,552.4,575.4,555.3z"/>
	</g>
</g>
</svg>
