<?xml version="1.0" encoding="utf-8"?>
<!-- Generator: Adobe Illustrator 26.0.1, SVG Export Plug-In . SVG Version: 6.00 Build 0)  -->
<svg version="1.1" xmlns="http://www.w3.org/2000/svg" xmlns:xlink="http://www.w3.org/1999/xlink" x="0px" y="0px"
	 viewBox="0 0 78 330" style="enable-background:new 0 0 78 330;" xml:space="preserve">
<style type="text/css">
	.st0{display:none;}
	.st1{display:inline;fill:#14294C;}
	.st2{fill:#CF1A5D;}
	.st3{fill:#B01750;}
</style>
<g id="BG">
</g>
<g id="Layer_3" class="st0">
	<rect x="-1479" y="-286" class="st1" width="1122" height="1122"/>
</g>
<g id="Object">
	<g>
		<g>
			<path class="st2" d="M22.5,293.1c0-9.1,7.4-16.5,16.5-16.5V6.1L5.6,283.2c-0.6,2.5-0.9,5.1-0.9,7.8c0,18.9,15.3,34.3,34.3,34.3
				v-15.7C29.9,309.6,22.5,302.2,22.5,293.1z"/>
		</g>
		<g>
			<path class="st3" d="M73.3,291c0-2.7-0.3-5.3-0.9-7.8L39,6.1v0v270.4c9.1,0,16.5,7.4,16.5,16.5c0,9.1-7.4,16.5-16.5,16.5v15.7
				l0,0C57.9,325.3,73.3,310,73.3,291z"/>
		</g>
	</g>
</g>
</svg>
